<svg xmlns="http://www.w3.org/2000/svg" viewBox="0 0 130 167"><defs><style>.a{fill:#36c7d6;opacity:0.15;}.b,.e{fill:#fff;}.b,.c,.e,.f{stroke:#36c7d6;}.b,.d,.f{stroke-linejoin:round;}.b,.c,.d,.e,.f{stroke-width:2px;}.c{fill:#9ce3eb;}.c,.e{stroke-miterlimit:10;}.d,.f{fill:none;stroke-linecap:round;}.d{stroke:#fff;}</style></defs><title>404-icon-8</title><ellipse class="a" cx="70" cy="162" rx="60" ry="5"/><polygon class="b" points="71.71 1 30.29 1 1 30.29 1 71.71 30.29 101 71.71 101 101 71.71 101 30.29 71.71 1"/><polygon class="c" points="69.64 6 32.36 6 6 32.36 6 69.64 32.36 96 69.64 96 96 69.64 96 32.36 69.64 6"/><polyline class="d" points="34.15 63.87 34.15 39.22 19.32 56.78 37.24 56.78"/><polyline class="d" points="77.23 63.87 77.23 39.22 62.4 56.78 80.32 56.78"/><ellipse class="d" cx="50.34" cy="51.55" rx="9.13" ry="12.32"/><rect class="e" x="46" y="101" width="10" height="60"/><rect class="a" x="46" y="101" width="10" height="6"/><polygon class="e" points="101 161 53 161 69 91 85 91 101 161"/><line class="f" x1="37" y1="161" x2="117" y2="161"/><polygon class="c" points="63.29 116 90.71 116 88.89 108 65.11 108 63.29 116"/><polygon class="c" points="59.17 134 94.83 134 93 126 61 126 59.17 134"/></svg>